<svg xmlns="http://www.w3.org/2000/svg" viewBox="0 0 92 104" width="92" height="104" role="img" aria-label="Blason de Montastruc-la-Conseillère">
  <defs>
    <linearGradient id="bg" x1="0" y1="0" x2="0" y2="1">
      <stop offset="0" stop-color="#14618e"/>
      <stop offset="1" stop-color="#0d3b54"/>
    </linearGradient>
  </defs>
  <path d="M6 6 H86 V58 C86 82 66 96 46 100 C26 96 6 82 6 58 Z" fill="url(#bg)" stroke="#b4472c" stroke-width="4"/>
  <!-- tour / donjon (Montastruc = mont + tour) -->
  <g fill="#f4e2d8">
    <rect x="34" y="40" width="24" height="34" rx="2"/>
    <rect x="30" y="34" width="6" height="8"/>
    <rect x="43" y="34" width="6" height="8"/>
    <rect x="56" y="34" width="6" height="8"/>
    <rect x="42" y="52" width="8" height="22" rx="4" fill="#0d3b54"/>
  </g>
  <!-- collines -->
  <path d="M6 74 C22 66 30 78 46 74 C62 70 70 80 86 72 V58 C86 82 66 96 46 100 C26 96 6 82 6 58 Z" fill="#b4472c" opacity=".9"/>
  <path d="M46 18 l3.2 6.5 7.2 1-5.2 5 1.2 7.1-6.4-3.4-6.4 3.4 1.2-7.1-5.2-5 7.2-1z" fill="#f6c14b"/>
</svg>
