<svg xmlns="http://www.w3.org/2000/svg" viewBox="0 0 800 520" width="800" height="520" role="img" aria-label="Vue illustrée du village de Montastruc-la-Conseillère">
  <defs>
    <linearGradient id="sky" x1="0" y1="0" x2="0" y2="1"><stop offset="0" stop-color="#cfe6f2"/><stop offset="1" stop-color="#eef6fb"/></linearGradient>
    <linearGradient id="hill" x1="0" y1="0" x2="0" y2="1"><stop offset="0" stop-color="#3f8f6a"/><stop offset="1" stop-color="#2f7d5b"/></linearGradient>
  </defs>
  <rect width="800" height="520" fill="url(#sky)"/>
  <circle cx="660" cy="110" r="46" fill="#f6c14b" opacity=".9"/>
  <!-- collines lointaines -->
  <path d="M0 300 C160 250 300 300 420 280 C560 256 680 300 800 276 V520 H0 Z" fill="#bcd9c7"/>
  <path d="M0 350 C180 320 340 360 480 336 C620 312 720 356 800 340 V520 H0 Z" fill="url(#hill)"/>
  <!-- maisons brique toulousaine -->
  <g>
    <rect x="120" y="330" width="90" height="90" fill="#c96a4b"/><path d="M112 330 l53-34 53 34z" fill="#9c3b25"/>
    <rect x="240" y="316" width="80" height="104" fill="#d98466"/><path d="M232 316 l48-32 48 32z" fill="#b4472c"/>
    <rect x="540" y="330" width="86" height="90" fill="#c96a4b"/><path d="M532 330 l51-34 51 34z" fill="#9c3b25"/>
    <g fill="#0d3b54" opacity=".65"><rect x="140" y="356" width="18" height="22"/><rect x="172" y="356" width="18" height="22"/><rect x="262" y="344" width="18" height="24"/><rect x="292" y="344" width="18" height="24"/><rect x="560" y="356" width="18" height="22"/><rect x="592" y="356" width="18" height="22"/></g>
  </g>
  <!-- clocher / tour de Montastruc -->
  <g>
    <rect x="378" y="220" width="60" height="200" fill="#e7d6c6"/>
    <path d="M370 220 l38-40 38 40z" fill="#b4472c"/>
    <rect x="396" y="150" width="24" height="34" fill="#e7d6c6"/><path d="M392 150 l16-16 16 16z" fill="#9c3b25"/>
    <circle cx="408" cy="270" r="14" fill="#0d3b54"/><path d="M408 260 v10 l7 5" stroke="#f6c14b" stroke-width="2.5" fill="none" stroke-linecap="round"/>
    <rect x="392" y="330" width="32" height="90" rx="16" fill="#0d3b54"/>
  </g>
  <!-- arbres -->
  <g fill="#2f7d5b"><circle cx="70" cy="400" r="34"/><circle cx="720" cy="400" r="38"/><circle cx="470" cy="410" r="28"/></g>
  <g fill="#155e40"><rect x="66" y="420" width="8" height="24"/><rect x="716" y="430" width="9" height="26"/></g>
</svg>
